<?xml version="1.0" standalone="no"?>
<!DOCTYPE svg PUBLIC "-//W3C//DTD SVG 20010904//EN"
 "http://www.w3.org/TR/2001/REC-SVG-20010904/DTD/svg10.dtd">
<svg version="1.0" xmlns="http://www.w3.org/2000/svg"
 width="390.000000pt" height="844.000000pt" viewBox="0 0 390.000000 844.000000"
 preserveAspectRatio="xMidYMid meet">

<g transform="translate(0.000000,844.000000) scale(0.100000,-0.100000)"
fill="#000000" stroke="none">
<path d="M1825 7510 c-320 -28 -579 -212 -588 -418 -4 -89 -62 -82 689 -82
760 0 700 -8 691 90 -23 258 -385 445 -792 410z"/>
<path d="M1342 6968 c-18 -18 -14 -56 7 -68 22 -11 181 -14 181 -2 0 12 -83
59 -125 71 -50 14 -48 14 -63 -1z"/>
<path d="M1495 6961 c72 -33 152 -134 184 -233 18 -53 43 -54 105 -3 123 99
308 200 431 236 59 17 56 18 -350 18 -405 1 -410 0 -370 -18z"/>
<path d="M2370 6969 c-94 -25 -206 -62 -215 -70 -13 -13 331 -12 356 1 21 12
25 50 7 68 -14 14 -97 14 -148 1z"/>
<path d="M1333 6859 c-81 -23 -98 -136 -29 -191 18 -15 46 -18 206 -17 128 0
180 3 168 10 -10 5 -22 29 -29 52 -11 45 -49 116 -75 141 -12 13 -37 16 -112
15 -53 0 -111 -5 -129 -10z"/>
<path d="M2029 6842 c-55 -29 -165 -102 -243 -162 l-39 -30 393 0 392 0 34 34
c37 37 44 74 22 120 -25 57 -44 61 -283 64 l-220 3 -56 -29z"/>
<path d="M1230 6613 c-43 -15 -52 -71 -20 -133 42 -82 175 -158 335 -191 185
-39 640 -35 800 6 146 38 290 134 316 212 16 50 4 89 -33 102 -32 11 -1367 15
-1398 4z"/>
<path d="M197 5918 c-9 -116 -8 -300 1 -316 6 -9 36 -12 113 -10 l104 3 8 95
c4 52 4 143 1 203 l-6 107 -108 0 -107 0 -6 -82z m128 -26 c-3 -202 -5 -232
-20 -232 -13 0 -15 21 -15 133 0 74 3 137 7 141 16 15 28 -3 28 -42z"/>
<path d="M462 5798 l3 -203 72 -3 72 -3 -24 43 c-25 44 -33 88 -15 88 5 0 18
-17 29 -37 23 -46 66 -87 80 -78 6 3 11 37 11 75 0 51 -4 69 -15 74 -20 7 -19
42 0 50 13 5 15 22 13 98 l-3 93 -113 3 -112 3 2 -203z m126 95 c-3 -46 -23
-71 -30 -36 -7 35 4 83 19 83 11 0 13 -11 11 -47z"/>
<path d="M726 5923 c-8 -96 -8 -296 0 -317 5 -13 24 -16 99 -16 129 0 125 -7
125 211 0 123 -4 179 -12 187 -8 8 -47 12 -109 12 l-96 0 -7 -77z m125 -124
c-2 -90 -5 -166 -7 -168 -1 -1 -7 0 -13 4 -12 7 -16 317 -4 329 23 23 28 -10
24 -165z"/>
<path d="M992 5798 l3 -203 103 -3 c88 -2 103 0 109 14 13 34 -11 68 -64 94
-52 24 -66 45 -40 56 19 7 67 -13 95 -38 l22 -21 0 96 0 96 -36 -24 c-43 -29
-97 -34 -92 -8 2 9 17 21 33 26 45 14 85 56 85 89 l0 28 -110 0 -110 0 2 -202z"/>
<path d="M1255 5958 c-3 -24 -5 -115 -3 -203 l3 -160 71 -3 72 -3 -24 47 c-13
26 -24 56 -24 66 0 29 26 21 41 -13 17 -41 57 -89 75 -89 21 0 20 143 -1 160
-8 7 -15 18 -15 25 0 7 7 15 15 19 12 4 15 25 15 101 l0 95 -109 0 -110 0 -6
-42z m123 -65 c-2 -27 -7 -48 -13 -48 -5 0 -11 21 -13 48 -3 38 0 47 13 47 13
0 16 -9 13 -47z"/>
<path d="M1520 5795 l0 -205 104 0 c66 0 107 4 112 11 10 17 18 258 10 332
l-8 67 -109 0 -109 0 0 -205z m128 8 c-2 -98 -7 -138 -15 -141 -22 -7 -26 25
-18 153 5 98 10 125 21 125 12 0 14 -24 12 -137z"/>
<path d="M1785 5978 c-3 -12 -4 -104 -3 -203 l3 -180 81 -3 81 -3 -33 67 c-19
36 -34 75 -34 85 0 43 21 23 59 -56 65 -133 71 -122 71 115 l0 200 -80 0 -79
0 35 -75 c33 -68 37 -95 14 -95 -5 0 -25 33 -43 73 -18 39 -41 78 -50 85 -14
12 -17 11 -22 -10z"/>
<path d="M2050 5795 l0 -205 105 0 c116 0 111 -3 118 73 6 62 -12 62 -69 2
-23 -25 -44 -45 -48 -45 -3 0 -6 79 -6 175 0 96 3 175 8 175 4 0 23 -17 43
-39 20 -21 46 -41 59 -44 20 -5 22 -3 16 25 -3 17 -6 43 -6 59 l0 29 -110 0
-110 0 0 -205z"/>
<path d="M2312 5798 l3 -203 42 -3 42 -3 3 67 c2 43 8 69 16 72 9 3 12 -15 12
-67 l0 -71 36 0 c74 0 74 -1 74 200 0 98 -3 185 -6 194 -5 13 -25 16 -115 16
l-109 0 2 -202z m128 108 c0 -39 -8 -66 -20 -66 -14 0 -21 32 -14 66 8 46 34
45 34 0z"/>
<path d="M2576 5923 c-10 -129 -7 -308 6 -321 34 -34 68 21 68 112 0 60 13 79
31 45 13 -24 6 -118 -12 -150 -9 -18 -5 -19 52 -19 54 0 60 2 54 18 -11 24
-19 138 -11 158 12 31 29 -2 31 -59 1 -52 20 -117 34 -117 3 0 13 5 21 10 12
7 16 40 19 160 2 83 0 171 -4 195 l-6 45 -66 0 -66 0 6 -41 c7 -53 0 -74 -19
-58 -8 7 -14 30 -14 55 l0 44 -59 0 -58 0 -7 -77z"/>
<path d="M2906 5923 c-8 -96 -8 -296 0 -317 5 -12 21 -16 75 -16 l68 0 -21 36
c-15 25 -21 54 -22 98 -1 67 -7 62 76 65 46 2 53 18 50 119 l-3 92 -108 0
-108 0 -7 -77z m122 -30 c-3 -55 -21 -65 -26 -15 -4 39 3 62 18 62 7 0 10 -18
8 -47z"/>
<path d="M3172 5798 l3 -203 106 -3 106 -3 7 38 c8 49 8 287 0 336 -7 37 -7
37 -54 37 l-47 0 -6 -82 c-5 -75 -3 -102 18 -189 10 -40 -12 -44 -32 -7 -15
27 -18 57 -18 156 l0 122 -43 0 -42 0 2 -202z"/>
<path d="M3438 5950 c-4 -108 -6 -101 34 -115 58 -19 88 -43 104 -80 14 -33
10 -65 -7 -65 -5 0 -15 16 -23 35 -15 35 -67 75 -98 75 -16 0 -18 -11 -18 -92
0 -51 4 -99 8 -106 6 -9 36 -12 113 -10 l104 3 3 112 3 111 -33 25 c-18 13
-46 27 -61 31 -20 5 -27 12 -25 24 5 23 54 19 90 -8 l28 -21 0 66 0 65 -110 0
-110 0 -2 -50z"/>
<path d="M205 5466 c-27 -40 8 -93 53 -79 18 7 15 21 -4 19 -21 -1 -39 27 -31
48 4 9 16 16 27 16 11 0 20 5 20 10 0 20 -50 10 -65 -14z"/>
<path d="M330 5445 c0 -52 24 -74 60 -55 15 8 20 21 20 55 0 57 -18 59 -22 3
-2 -30 -8 -43 -18 -43 -10 0 -16 13 -18 43 -4 56 -22 54 -22 -3z"/>
<path d="M460 5480 c0 -5 7 -10 15 -10 11 0 15 -11 15 -40 0 -22 5 -40 10 -40
6 0 10 18 10 40 0 29 4 40 15 40 8 0 15 5 15 10 0 6 -18 10 -40 10 -22 0 -40
-4 -40 -10z"/>
<path d="M650 5481 c0 -5 7 -11 15 -15 9 -3 15 -19 15 -41 0 -19 5 -35 10 -35
6 0 10 18 10 40 0 29 4 40 15 40 8 0 15 5 15 10 0 6 -18 10 -40 10 -22 0 -40
-4 -40 -9z"/>
<path d="M780 5440 c0 -27 5 -50 10 -50 6 0 10 9 10 20 0 13 7 20 20 20 13 0
20 -7 20 -20 0 -11 5 -20 10 -20 6 0 10 23 10 50 0 28 -4 50 -10 50 -5 0 -10
-8 -10 -18 0 -10 -3 -21 -6 -25 -11 -11 -34 5 -34 24 0 10 -4 19 -10 19 -5 0
-10 -22 -10 -50z"/>
<path d="M920 5440 c0 -50 0 -50 33 -49 29 0 30 1 10 9 -13 5 -23 14 -23 20 0
5 10 10 23 11 l22 0 -22 11 c-28 14 -30 28 -3 28 11 0 20 5 20 10 0 6 -13 10
-30 10 -29 0 -30 -1 -30 -50z"/>
<path d="M1093 5476 c3 -8 9 -31 13 -50 4 -26 11 -36 25 -36 14 0 19 7 19 30
0 17 5 30 10 30 6 0 10 -13 10 -30 0 -22 5 -30 18 -30 14 0 21 12 29 47 6 27
9 50 7 53 -9 8 -24 -24 -24 -50 0 -20 -2 -22 -10 -10 -5 8 -10 25 -10 38 0 39
-34 23 -40 -18 -5 -37 -13 -33 -24 13 -3 15 -11 27 -17 27 -6 0 -9 -6 -6 -14z"/>
<path d="M1288 5443 c-18 -49 -16 -65 4 -45 16 16 36 15 55 -3 24 -25 25 -12
5 41 -26 64 -43 66 -64 7z m42 -4 c0 -5 -4 -9 -10 -9 -5 0 -10 7 -10 16 0 8 5
12 10 9 6 -3 10 -10 10 -16z"/>
<path d="M1420 5440 c0 -27 5 -50 10 -50 6 0 10 23 10 50 0 28 -4 50 -10 50
-5 0 -10 -22 -10 -50z"/>
<path d="M1490 5480 c0 -5 7 -10 15 -10 11 0 15 -11 15 -39 0 -22 5 -43 10
-46 6 -4 10 12 10 39 0 34 4 46 15 46 8 0 15 5 15 10 0 6 -18 10 -40 10 -22 0
-40 -4 -40 -10z"/>
<path d="M1770 5440 c0 -50 0 -50 33 -49 29 0 30 1 10 9 -13 5 -23 14 -23 20
0 5 10 10 23 11 l22 0 -22 11 c-28 14 -30 28 -3 28 11 0 20 5 20 10 0 6 -13
10 -30 10 -29 0 -30 -1 -30 -50z"/>
<path d="M1882 5440 c-3 -55 15 -71 20 -17 l3 32 22 -37 c12 -21 27 -38 33
-38 6 0 10 24 10 55 0 61 -19 77 -21 18 l-1 -38 -16 37 c-25 55 -46 50 -50
-12z"/>
<path d="M2060 5446 c0 -41 -2 -46 -22 -46 -20 -1 -21 -2 -6 -10 24 -14 48 -2
49 26 1 13 2 34 2 46 1 12 -4 23 -11 26 -8 2 -12 -10 -12 -42z"/>
<path d="M2152 5478 c-7 -7 -12 -24 -12 -38 0 -34 17 -50 52 -50 45 0 62 67
24 92 -17 12 -51 9 -64 -4z m56 -37 c2 -13 -1 -28 -7 -34 -17 -17 -45 15 -36
42 9 29 39 23 43 -8z"/>
<path d="M2297 5458 c9 -18 16 -41 14 -50 -1 -11 4 -18 13 -18 10 0 16 9 16
23 0 13 7 32 15 43 18 24 19 34 1 34 -8 0 -17 -8 -21 -17 -6 -17 -7 -17 -19 0
-24 31 -38 20 -19 -15z"/>
<path d="M2480 5482 c0 -4 5 -13 11 -19 6 -6 14 -25 18 -43 8 -40 24 -43 31
-5 4 17 12 40 19 53 10 18 9 22 -3 22 -7 0 -17 -8 -21 -17 -6 -17 -7 -17 -19
0 -13 17 -36 23 -36 9z"/>
<path d="M2632 5478 c-7 -7 -12 -27 -12 -45 0 -26 5 -36 23 -42 40 -15 67 5
67 50 0 30 -17 49 -45 49 -12 0 -26 -5 -33 -12z m53 -29 c8 -24 -16 -55 -34
-45 -12 8 -15 49 -4 59 13 14 32 7 38 -14z"/>
<path d="M2770 5445 c0 -34 5 -47 20 -55 36 -19 60 3 60 55 0 57 -18 59 -22 3
-2 -30 -8 -43 -18 -43 -10 0 -16 13 -18 43 -4 56 -22 54 -22 -3z"/>
<path d="M2910 5440 c0 -27 5 -50 10 -50 6 0 10 9 10 20 0 11 5 20 11 20 6 0
13 -9 16 -20 3 -11 12 -20 19 -20 16 0 17 9 5 29 -6 9 -6 22 -1 31 12 23 -7
40 -42 40 -27 0 -28 -2 -28 -50z m48 19 c-2 -6 -8 -10 -13 -10 -5 0 -11 4 -13
10 -2 6 4 11 13 11 9 0 15 -5 13 -11z"/>
<path d="M3110 5440 c0 -50 13 -67 23 -30 3 12 14 20 25 20 24 0 33 18 20 43
-5 10 -20 17 -38 17 -29 0 -30 -1 -30 -50z m50 22 c0 -13 -12 -22 -22 -16 -10
6 -1 24 13 24 5 0 9 -4 9 -8z"/>
<path d="M3240 5440 l0 -50 33 1 c23 1 26 3 10 6 -20 4 -23 11 -23 49 0 24 -4
44 -10 44 -5 0 -10 -22 -10 -50z"/>
<path d="M3360 5465 c-19 -49 -22 -75 -11 -75 6 0 11 5 11 10 0 14 33 13 48
-2 21 -21 24 0 7 46 -20 51 -41 59 -55 21z m35 -25 c3 -5 -1 -10 -9 -10 -9 0
-16 5 -16 10 0 6 4 10 9 10 6 0 13 -4 16 -10z"/>
<path d="M3483 5476 c10 -8 17 -27 17 -49 0 -20 5 -39 10 -42 11 -7 13 4 10
48 -1 21 4 30 19 34 38 10 22 23 -26 23 -42 -1 -46 -2 -30 -14z"/>
<path d="M3608 5440 c4 -47 6 -50 30 -49 17 1 21 3 10 6 -10 2 -18 11 -18 18
0 7 8 16 18 18 16 4 16 5 0 6 -22 1 -24 31 -3 31 8 0 15 5 15 10 0 6 -12 10
-27 10 -27 0 -28 -1 -25 -50z"/>
<path d="M1620 5391 c0 -25 6 -27 13 -6 4 8 2 17 -3 20 -6 4 -10 -3 -10 -14z"/>
</g>
</svg>
